<svg width="36" height="21" viewBox="0 0 36 21" fill="none" xmlns="http://www.w3.org/2000/svg">
<path d="M31.2896 14.6112C31.2896 15.7001 30.2062 16.5819 28.8703 16.5819H7.09622C5.76031 16.5819 4.67688 15.7001 4.67688 14.6112V5.73867C4.67688 4.64977 5.76031 3.767 7.09622 3.767H28.8703C30.2062 3.767 31.2896 4.64977 31.2896 5.73867V14.6112Z" fill="white"/>
<path d="M29.6852 16.5819C29.6852 17.6708 28.6358 18.5536 27.3415 18.5536H7.42C6.12563 18.5536 5.07629 17.6708 5.07629 16.5819V15.5961C5.07629 14.5072 6.12563 13.6244 7.42 13.6244H27.3415C28.6358 13.6244 29.6852 14.5072 29.6852 15.5961V16.5819Z" fill="white"/>
<path d="M17.9838 11.1598C25.3289 11.1598 31.2832 8.7022 31.2832 5.67054C31.2832 2.63889 25.3289 0.181244 17.9838 0.181244C10.6387 0.181244 4.68433 2.63889 4.68433 5.67054C4.68433 8.7022 10.6387 11.1598 17.9838 11.1598Z" fill="white"/>
<path d="M7.42003 9.68197C7.42003 11.3149 5.84548 12.6395 3.90447 12.6395C1.96346 12.6395 0.388916 11.3149 0.388916 9.68197C0.388916 8.04728 1.96346 6.72357 3.90447 6.72357C5.84655 6.72357 7.42003 8.04728 7.42003 9.68197Z" fill="white"/>
<path d="M7.41995 18.5536C7.41995 19.6425 6.37061 20.5252 5.07625 20.5252C3.78188 20.5252 2.73254 19.6425 2.73254 18.5536V9.68197C2.73254 8.59307 3.78188 7.7103 5.07625 7.7103C6.37061 7.7103 7.41995 8.59307 7.41995 9.68197V18.5536ZM28.5133 9.68197C28.5133 11.3149 30.0868 12.6395 32.0288 12.6395C33.9688 12.6395 35.5444 11.3149 35.5444 9.68197C35.5444 8.04817 33.9688 6.72357 32.0288 6.72357C30.0878 6.72357 28.5133 8.04728 28.5133 9.68197Z" fill="white"/>
<path d="M28.5134 18.5536C28.5134 19.6425 29.5617 20.5253 30.856 20.5253C32.1504 20.5253 33.1997 19.6425 33.1997 18.5536V9.68199C33.1997 8.5931 32.1504 7.71033 30.856 7.71033C29.5617 7.71033 28.5134 8.5931 28.5134 9.68199V18.5536ZM17.9667 13.6244C17.9667 14.7133 16.9174 15.5961 15.623 15.5961H9.76375C8.46938 15.5961 7.42004 14.7133 7.42004 13.6244C7.42004 12.5355 8.46938 11.6528 9.76375 11.6528H15.623C16.9174 11.6528 17.9667 12.5355 17.9667 13.6244ZM28.5134 13.6244C28.5134 14.7133 27.464 15.5961 26.1697 15.5961H20.3104C19.0161 15.5961 17.9667 14.7133 17.9667 13.6244C17.9667 12.5355 19.0161 11.6528 20.3104 11.6528H26.1697C27.464 11.6528 28.5134 12.5355 28.5134 13.6244Z" fill="white"/>
<path d="M6.78088 13.6244H29.1526V16.3131H6.78088V13.6244Z" fill="white"/>
</svg>
