<svg width="36" height="21" viewBox="0 0 36 21" fill="none" xmlns="http://www.w3.org/2000/svg">
<path d="M31.5118 15.0299C31.5118 16.1188 30.4284 17.0007 29.0925 17.0007H7.31839C5.98248 17.0007 4.89905 16.1188 4.89905 15.0299V6.15743C4.89905 5.06853 5.98248 4.18576 7.31839 4.18576H29.0925C30.4284 4.18576 31.5118 5.06853 31.5118 6.15743V15.0299Z" fill="#6A30CA"/>
<path d="M29.9074 17.0007C29.9074 18.0896 28.858 18.9723 27.5636 18.9723H7.64217C6.3478 18.9723 5.29846 18.0896 5.29846 17.0007V16.0148C5.29846 14.926 6.3478 14.0432 7.64217 14.0432H27.5636C28.858 14.0432 29.9074 14.926 29.9074 16.0148V17.0007Z" fill="#D9D9D9"/>
<path d="M18.2059 11.5786C25.551 11.5786 31.5054 9.12096 31.5054 6.0893C31.5054 3.05765 25.551 0.600006 18.2059 0.600006C10.8609 0.600006 4.90649 3.05765 4.90649 6.0893C4.90649 9.12096 10.8609 11.5786 18.2059 11.5786Z" fill="#6A30CA"/>
<path d="M7.64219 10.1007C7.64219 11.7336 6.06765 13.0582 4.12664 13.0582C2.18563 13.0582 0.611084 11.7336 0.611084 10.1007C0.611084 8.46604 2.18563 7.14233 4.12664 7.14233C6.06872 7.14233 7.64219 8.46604 7.64219 10.1007Z" fill="#D9D9D9"/>
<path d="M7.64212 18.9723C7.64212 20.0612 6.59278 20.944 5.29842 20.944C4.00405 20.944 2.95471 20.0612 2.95471 18.9723V10.1007C2.95471 9.01183 4.00405 8.12906 5.29842 8.12906C6.59278 8.12906 7.64212 9.01183 7.64212 10.1007V18.9723ZM28.7355 10.1007C28.7355 11.7336 30.3089 13.0582 32.251 13.0582C34.191 13.0582 35.7666 11.7336 35.7666 10.1007C35.7666 8.46694 34.191 7.14233 32.251 7.14233C30.31 7.14233 28.7355 8.46604 28.7355 10.1007Z" fill="#D9D9D9"/>
<path d="M28.7355 18.9724C28.7355 20.0613 29.7838 20.944 31.0782 20.944C32.3725 20.944 33.4219 20.0613 33.4219 18.9724V10.1008C33.4219 9.01186 32.3725 8.12909 31.0782 8.12909C29.7838 8.12909 28.7355 9.01186 28.7355 10.1008V18.9724ZM18.1889 14.0432C18.1889 15.1321 17.1395 16.0149 15.8452 16.0149H9.98592C8.69155 16.0149 7.64221 15.1321 7.64221 14.0432C7.64221 12.9543 8.69155 12.0715 9.98592 12.0715H15.8452C17.1395 12.0715 18.1889 12.9543 18.1889 14.0432ZM28.7355 14.0432C28.7355 15.1321 27.6862 16.0149 26.3918 16.0149H20.5326C19.2382 16.0149 18.1889 15.1321 18.1889 14.0432C18.1889 12.9543 19.2382 12.0715 20.5326 12.0715H26.3918C27.6862 12.0715 28.7355 12.9543 28.7355 14.0432Z" fill="#D9D9D9"/>
<path d="M7.00305 14.0432H29.3748V16.7318H7.00305V14.0432Z" fill="#D9D9D9"/>
</svg>
