<svg width="36" height="21" viewBox="0 0 36 21" fill="none" xmlns="http://www.w3.org/2000/svg">
<path d="M30.9563 14.4487C30.9563 15.5376 29.8728 16.4194 28.5369 16.4194H6.76285C5.42694 16.4194 4.34351 15.5376 4.34351 14.4487V5.57616C4.34351 4.48726 5.42694 3.60449 6.76285 3.60449H28.5369C29.8728 3.60449 30.9563 4.48726 30.9563 5.57616V14.4487Z" fill="#616162"/>
<path d="M29.3518 16.4194C29.3518 17.5083 28.3025 18.3911 27.0081 18.3911H7.08662C5.79226 18.3911 4.74292 17.5083 4.74292 16.4194V15.4336C4.74292 14.3447 5.79226 13.4619 7.08662 13.4619H27.0081C28.3025 13.4619 29.3518 14.3447 29.3518 15.4336V16.4194Z" fill="#616162"/>
<path d="M17.6504 10.9973C24.9955 10.9973 30.9499 8.53969 30.9499 5.50804C30.9499 2.47638 24.9955 0.0187378 17.6504 0.0187378C10.3053 0.0187378 4.35095 2.47638 4.35095 5.50804C4.35095 8.53969 10.3053 10.9973 17.6504 10.9973Z" fill="#616162"/>
<path d="M7.08665 9.51946C7.08665 11.1524 5.51211 12.477 3.5711 12.477C1.63008 12.477 0.055542 11.1524 0.055542 9.51946C0.055542 7.88477 1.63008 6.56107 3.5711 6.56107C5.51318 6.56107 7.08665 7.88477 7.08665 9.51946Z" fill="#616162"/>
<path d="M7.08658 18.3911C7.08658 19.48 6.03724 20.3627 4.74287 20.3627C3.44851 20.3627 2.39917 19.48 2.39917 18.3911V9.51946C2.39917 8.43056 3.44851 7.54779 4.74287 7.54779C6.03724 7.54779 7.08658 8.43056 7.08658 9.51946V18.3911ZM28.1799 9.51946C28.1799 11.1524 29.7534 12.477 31.6955 12.477C33.6354 12.477 35.211 11.1524 35.211 9.51946C35.211 7.88567 33.6354 6.56107 31.6955 6.56107C29.7545 6.56107 28.1799 7.88477 28.1799 9.51946Z" fill="#616162"/>
<path d="M28.18 18.3911C28.18 19.48 29.2283 20.3628 30.5226 20.3628C31.817 20.3628 32.8663 19.48 32.8663 18.3911V9.51949C32.8663 8.43059 31.817 7.54782 30.5226 7.54782C29.2283 7.54782 28.18 8.43059 28.18 9.51949V18.3911ZM17.6333 13.4619C17.6333 14.5508 16.584 15.4336 15.2896 15.4336H9.43037C8.13601 15.4336 7.08667 14.5508 7.08667 13.4619C7.08667 12.373 8.13601 11.4903 9.43037 11.4903H15.2896C16.584 11.4903 17.6333 12.373 17.6333 13.4619ZM28.18 13.4619C28.18 14.5508 27.1307 15.4336 25.8363 15.4336H19.977C18.6827 15.4336 17.6333 14.5508 17.6333 13.4619C17.6333 12.373 18.6827 11.4903 19.977 11.4903H25.8363C27.1307 11.4903 28.18 12.373 28.18 13.4619Z" fill="#616162"/>
<path d="M6.44751 13.4619H28.8192V16.1506H6.44751V13.4619Z" fill="#616162"/>
</svg>
